<svg version="1.1" id="Layer_1" xmlns="http://www.w3.org/2000/svg" xmlns:xlink="http://www.w3.org/1999/xlink" x="0px" y="0px"
	 width="100%" viewBox="0 0 200 200" enable-background="new 0 0 200 200" xml:space="preserve">
<path fill="#FD5B44" opacity="1.000000" stroke="none" 
	d="
M0.999996,191.000000 
	C1.000000,132.979111 1.000000,74.958206 1.390760,16.461777 
	C3.518815,14.261581 5.256109,12.536923 7.142110,10.664640 
	C7.787911,11.470316 8.391663,12.850818 9.415004,13.324125 
	C10.442313,13.799270 11.975120,13.628114 13.117373,13.241210 
	C13.806688,13.007726 14.723268,11.261384 14.606683,11.147441 
	C10.062479,6.706131 13.974070,4.481346 16.892670,1.962811 
	C17.071917,1.808134 16.970716,1.328460 17.000000,1.000000 
	C74.687561,1.000000 132.375122,1.000000 190.547806,1.338313 
	C194.355286,4.784416 197.677643,7.892205 201.000000,10.999997 
	C201.000000,70.354225 201.000000,129.708450 200.955292,189.887054 
	C197.607071,194.140961 194.303543,197.570480 191.000000,201.000000 
	C131.312439,201.000000 71.624878,201.000000 11.341551,200.681305 
	C7.497188,197.241730 4.248590,194.120865 0.999996,191.000000 
M26.002743,108.589714 
	C26.034899,109.042480 26.067055,109.495247 25.640240,110.457916 
	C26.706810,112.978111 27.476032,115.712006 29.033617,117.879318 
	C29.462542,118.476143 32.244736,117.381737 34.626839,117.005142 
	C35.080746,116.999077 35.534653,116.993004 36.339321,117.565666 
	C41.490917,120.773674 46.642513,123.981682 51.992355,127.705391 
	C52.320454,128.143143 52.648548,128.580902 53.289024,129.660629 
	C54.859673,133.464828 56.483894,137.248047 57.984432,141.079697 
	C59.239185,144.283737 59.594677,148.173080 61.666943,150.660446 
	C67.548950,157.720688 74.146500,164.181473 80.364830,170.967606 
	C81.669144,172.391022 83.590981,174.291809 83.451599,175.809448 
	C82.923843,181.556030 86.138229,182.218735 90.510521,182.022491 
	C92.670425,181.925537 94.838219,182.004379 96.971870,182.736328 
	C96.041534,184.838074 95.111198,186.939804 94.404076,188.537292 
	C100.572525,187.844238 106.415421,187.187759 112.242928,186.533005 
	C109.579002,184.863190 107.281677,183.423172 105.654808,181.673141 
	C107.915497,181.337692 110.190033,180.647446 112.434212,180.735031 
	C118.543488,180.973511 124.634209,181.696045 130.743546,181.920654 
	C134.502213,182.058838 137.170212,180.618149 137.065826,176.087234 
	C137.036377,174.808487 137.780579,172.935440 138.782120,172.300156 
	C147.140854,166.998398 153.446106,159.673767 157.938766,151.149399 
	C161.170609,145.017288 163.321625,138.122726 164.766006,131.316025 
	C165.589523,127.435097 166.105057,123.976181 169.194611,121.228790 
	C176.298706,114.911469 181.051376,107.093697 183.497665,97.908302 
	C184.864777,92.775024 186.180862,87.625526 187.364914,82.447891 
	C187.681183,81.064949 187.828552,78.464905 187.362839,78.292831 
	C185.667892,77.666611 183.425156,77.219284 181.872299,77.865662 
	C180.198944,78.562210 179.113358,80.609184 177.692764,81.985909 
	C172.949677,86.582489 168.254517,91.234612 163.358505,95.663719 
	C161.790970,97.081764 159.875305,97.631264 158.706741,94.684875 
	C154.417572,83.870377 150.590958,72.792015 151.160385,61.095486 
	C151.875854,46.399143 144.724640,35.958000 134.104828,27.724483 
	C126.711349,21.992329 117.550575,20.469475 107.930855,20.862246 
	C95.073654,21.387199 84.550392,26.953352 77.039200,36.399620 
	C71.590233,43.252388 68.122520,52.073444 68.943169,61.662392 
	C69.225517,64.961433 69.118324,68.331963 68.797180,71.631691 
	C68.565674,74.010460 67.403671,75.566917 64.860153,73.068237 
	C64.860153,73.068237 64.708633,73.034851 64.690659,72.270027 
	C63.227287,71.515541 61.771290,70.124336 60.299381,70.107300 
	C48.530220,69.971100 36.758049,70.094894 24.243214,70.076637 
	C23.498402,70.097382 22.753592,70.118126 21.200226,70.064392 
	C16.242567,70.292664 17.969006,73.894264 18.426361,76.261406 
	C19.769743,83.214363 21.508549,90.090927 22.596012,97.540512 
	C23.392525,100.006317 24.189035,102.472115 25.035904,104.964844 
	C25.035904,104.964844 25.059504,105.016838 25.049154,105.653053 
	C25.344086,106.405899 25.639017,107.158737 26.002743,108.589714 
M155.813492,160.660660 
	C153.812439,164.838074 152.596512,169.807236 146.382278,169.677475 
	C146.064056,169.670837 145.281342,171.419983 145.493439,172.113602 
	C145.717484,172.846268 146.795624,173.589233 147.637894,173.814346 
	C151.272598,174.785828 156.007401,172.064423 156.882889,168.413193 
	C157.636871,165.268631 158.047455,162.041733 158.609863,158.851242 
	C158.122803,158.498489 157.635727,158.145737 157.148651,157.792984 
	C156.853745,158.572800 156.558853,159.352615 155.813492,160.660660 
z"/>
<path fill="#F06041" opacity="1.000000" stroke="none" 
	d="
M16.583334,1.000000 
	C16.970716,1.328460 17.071917,1.808134 16.892670,1.962811 
	C13.974070,4.481346 10.062479,6.706131 14.606683,11.147441 
	C14.723268,11.261384 13.806688,13.007726 13.117373,13.241210 
	C11.975120,13.628114 10.442313,13.799270 9.415004,13.324125 
	C8.391663,12.850818 7.787911,11.470316 7.142110,10.664640 
	C5.256109,12.536923 3.518815,14.261581 1.390760,15.993120 
	C1.000000,14.933331 1.000000,13.866661 1.323214,12.294672 
	C5.097618,8.192901 8.548809,4.596450 12.000000,1.000000 
	C13.388889,1.000000 14.777779,1.000000 16.583334,1.000000 
M8.854831,7.544157 
	C8.910666,7.840306 8.966502,8.136456 9.022339,8.432606 
	C9.090043,8.139104 9.157747,7.845602 8.854831,7.544157 
z"/>
<path fill="#FCF2EF" opacity="1.000000" stroke="none" 
	d="
M11.517044,1.000000 
	C8.548809,4.596450 5.097618,8.192901 1.323214,11.894676 
	C1.000000,8.412791 1.000000,4.825583 1.000000,1.000000 
	C4.342551,1.000000 7.688319,1.000000 11.517044,1.000000 
z"/>
<path fill="#FCF4EC" opacity="1.000000" stroke="none" 
	d="
M201.000000,10.513433 
	C197.677643,7.892205 194.355286,4.784416 191.016464,1.338313 
	C194.252457,1.000000 197.504913,1.000000 201.000000,1.000000 
	C201.000000,4.006597 201.000000,7.016734 201.000000,10.513433 
z"/>
<path fill="#FDEFE7" opacity="1.000000" stroke="none" 
	d="
M191.486572,201.000000 
	C194.303543,197.570480 197.607071,194.140961 200.955292,190.355713 
	C201.000000,193.582047 201.000000,197.164078 201.000000,201.000000 
	C197.993652,201.000000 194.983398,201.000000 191.486572,201.000000 
z"/>
<path fill="#FCF7F5" opacity="1.000000" stroke="none" 
	d="
M0.999996,191.486572 
	C4.248590,194.120865 7.497188,197.241730 10.872892,200.681305 
	C7.747546,201.000000 4.495092,201.000000 1.000000,201.000000 
	C1.000000,197.993408 1.000000,194.983276 0.999996,191.486572 
z"/>
<path fill="#FCB142" opacity="1.000000" stroke="none" 
	d="
M22.008780,70.138870 
	C22.753592,70.118126 23.498402,70.097382 24.714325,70.430557 
	C26.281017,71.374680 27.365248,72.454239 28.473915,72.479935 
	C40.549953,72.759918 52.629814,72.874924 64.708633,73.034851 
	C64.708633,73.034851 64.860153,73.068237 64.924362,73.470047 
	C65.305901,75.963997 65.623230,78.056137 65.727959,80.419983 
	C67.643433,91.126678 69.771507,101.561661 71.811356,112.338272 
	C70.592041,113.042679 69.442688,113.767212 68.332748,113.711174 
	C59.259560,113.253082 50.197861,112.521133 41.121189,112.228226 
	C39.759117,112.184265 38.337410,113.988098 36.543987,114.949249 
	C33.421532,114.307465 30.698376,113.653587 27.936165,112.656509 
	C27.875259,111.623055 27.853411,110.932800 27.871857,109.887878 
	C27.331068,108.674370 26.749985,107.815544 26.122166,106.635902 
	C26.061024,105.883301 26.046616,105.451515 26.259382,104.735992 
	C25.341331,98.343552 23.950575,92.267784 23.125635,86.116127 
	C22.417486,80.835411 22.356148,75.467964 22.008780,70.138870 
z"/>
<path fill="#DC604F" opacity="1.000000" stroke="none" 
	d="
M65.940559,80.148270 
	C65.623230,78.056137 65.305901,75.963997 65.001945,73.470093 
	C67.403671,75.566917 68.565674,74.010460 68.797180,71.631691 
	C69.118324,68.331963 69.225517,64.961433 68.943169,61.662392 
	C68.122520,52.073444 71.590233,43.252388 77.039200,36.399620 
	C84.550392,26.953352 95.073654,21.387199 107.930855,20.862246 
	C117.550575,20.469475 126.711349,21.992329 134.104828,27.724483 
	C144.724640,35.958000 151.875854,46.399143 151.160385,61.095486 
	C150.590958,72.792015 154.417572,83.870377 158.706741,94.684875 
	C159.875305,97.631264 161.790970,97.081764 163.358505,95.663719 
	C168.254517,91.234612 172.949677,86.582489 177.692764,81.985909 
	C179.113358,80.609184 180.198944,78.562210 181.872299,77.865662 
	C183.425156,77.219284 185.667892,77.666611 187.362839,78.292831 
	C187.828552,78.464905 187.681183,81.064949 187.364914,82.447891 
	C186.180862,87.625526 184.864777,92.775024 183.497665,97.908302 
	C181.051376,107.093697 176.298706,114.911469 169.194611,121.228790 
	C166.105057,123.976181 165.589523,127.435097 164.766006,131.316025 
	C163.321625,138.122726 161.170609,145.017288 157.938766,151.149399 
	C153.446106,159.673767 147.140854,166.998398 138.782120,172.300156 
	C137.780579,172.935440 137.036377,174.808487 137.065826,176.087234 
	C137.170212,180.618149 134.502213,182.058838 130.743546,181.920654 
	C124.634209,181.696045 118.543488,180.973511 112.434212,180.735031 
	C110.190033,180.647446 107.915497,181.337692 104.877380,181.823151 
	C101.734108,181.983337 99.368279,181.993515 97.002441,182.003677 
	C94.838219,182.004379 92.670425,181.925537 90.510521,182.022491 
	C86.138229,182.218735 82.923843,181.556030 83.451599,175.809448 
	C83.590981,174.291809 81.669144,172.391022 80.364830,170.967606 
	C74.146500,164.181473 67.548950,157.720688 61.666943,150.660446 
	C59.594677,148.173080 59.239185,144.283737 57.984432,141.079697 
	C56.483894,137.248047 54.859673,133.464828 53.296631,129.173828 
	C53.304241,128.687027 53.630928,128.354538 53.914215,128.535217 
	C55.917717,131.640091 58.327908,134.365601 59.237183,137.523315 
	C62.925667,150.332535 70.143265,160.618561 80.622040,168.602798 
	C86.359756,172.974640 86.537872,172.740875 86.542686,180.262314 
	C92.896507,179.738373 99.188690,179.207260 105.483276,178.706406 
	C108.097542,178.498367 110.734909,178.073883 113.330338,178.239700 
	C119.035736,178.604248 124.717888,179.319168 130.416061,179.816116 
	C133.199112,180.058853 134.785614,178.823380 133.612274,175.995667 
	C132.456451,173.210205 133.868362,172.157455 135.917252,170.933456 
	C152.259415,161.170624 160.523163,146.330719 163.048157,127.817268 
	C163.315155,125.859558 164.206024,123.557922 165.593674,122.249954 
	C176.651108,111.827469 181.777725,98.528511 184.588257,84.063896 
	C184.833801,82.800186 184.464966,81.417091 184.381500,80.089447 
	C184.671036,80.647049 184.960587,81.204651 185.250122,81.762253 
	C179.080246,86.742355 172.910370,91.722466 166.415527,96.810333 
	C163.872040,98.237671 161.653534,99.557259 159.058594,101.100746 
	C152.854401,87.812752 149.268814,74.484451 148.996536,60.280067 
	C148.764008,48.149418 143.506714,38.313183 133.971909,31.152910 
	C121.147758,21.522470 106.966591,19.839300 92.647034,27.300993 
	C77.665489,35.107635 70.710045,48.049347 71.231323,65.417694 
	C70.078697,70.964508 69.028839,76.076187 67.689354,81.135063 
	C66.913338,80.770935 66.426949,80.459602 65.940559,80.148270 
z"/>
<path fill="#FE9A4B" opacity="1.000000" stroke="none" 
	d="
M64.699646,72.652435 
	C52.629814,72.874924 40.549953,72.759918 28.473915,72.479935 
	C27.365248,72.454239 26.281017,71.374680 25.086117,70.461769 
	C36.758049,70.094894 48.530220,69.971100 60.299381,70.107300 
	C61.771290,70.124336 63.227287,71.515541 64.699646,72.652435 
z"/>
<path fill="#FE9A4B" opacity="1.000000" stroke="none" 
	d="
M21.604504,70.101631 
	C22.356148,75.467964 22.417486,80.835411 23.125635,86.116127 
	C23.950575,92.267784 25.341331,98.343552 26.016037,104.734978 
	C25.545517,105.017700 25.059504,105.016838 25.059504,105.016838 
	C25.059504,105.016838 25.035904,104.964844 25.010435,104.563522 
	C24.354149,101.773941 23.723330,99.385674 23.092512,96.997406 
	C21.508549,90.090927 19.769743,83.214363 18.426361,76.261406 
	C17.969006,73.894264 16.242567,70.292664 21.604504,70.101631 
z"/>
<path fill="#F85D42" opacity="1.000000" stroke="none" 
	d="
M156.038727,160.396545 
	C156.558853,159.352615 156.853745,158.572800 157.148651,157.792984 
	C157.635727,158.145737 158.122803,158.498489 158.609863,158.851242 
	C158.047455,162.041733 157.636871,165.268631 156.882889,168.413193 
	C156.007401,172.064423 151.272598,174.785828 147.637894,173.814346 
	C146.795624,173.589233 145.717484,172.846268 145.493439,172.113602 
	C145.281342,171.419983 146.064056,169.670837 146.382278,169.677475 
	C152.596512,169.807236 153.812439,164.838074 156.038727,160.396545 
z"/>
<path fill="#F95D43" opacity="1.000000" stroke="none" 
	d="
M96.987152,182.369995 
	C99.368279,181.993515 101.734108,181.983337 104.542152,181.978165 
	C107.281677,183.423172 109.579002,184.863190 112.242928,186.533005 
	C106.415421,187.187759 100.572525,187.844238 94.404076,188.537292 
	C95.111198,186.939804 96.041534,184.838074 96.987152,182.369995 
z"/>
<path fill="#DC604F" opacity="1.000000" stroke="none" 
	d="
M51.794106,127.189682 
	C46.642513,123.981682 41.490917,120.773674 36.400684,117.143585 
	C36.848217,116.160515 37.234386,115.599533 37.837669,114.985458 
	C38.054787,114.932365 38.501034,114.958656 38.692020,115.263031 
	C43.306629,119.329796 47.730251,123.092186 52.064255,126.938698 
	C51.974640,127.022820 51.794109,127.189682 51.794106,127.189682 
z"/>
<path fill="#DC604F" opacity="1.000000" stroke="none" 
	d="
M27.831562,110.242554 
	C27.853411,110.932800 27.875259,111.623055 27.946867,113.041527 
	C28.384224,117.750916 31.564445,116.686676 33.947128,117.063347 
	C32.244736,117.381737 29.462542,118.476143 29.033617,117.879318 
	C27.476032,115.712006 26.706810,112.978111 26.159828,110.240532 
	C27.063465,110.096283 27.447514,110.169418 27.831562,110.242554 
z"/>
<path fill="#FE9A4B" opacity="1.000000" stroke="none" 
	d="
M34.286983,117.034241 
	C31.564445,116.686676 28.384224,117.750916 27.985924,113.384735 
	C30.698376,113.653587 33.421532,114.307465 36.713959,114.972206 
	C37.283234,114.983070 37.620560,115.038551 37.620560,115.038551 
	C37.234386,115.599533 36.848217,116.160515 36.225304,116.854218 
	C35.534653,116.993004 35.080746,116.999077 34.286983,117.034241 
z"/>
<path fill="#DC604F" opacity="1.000000" stroke="none" 
	d="
M22.844261,97.268959 
	C23.723330,99.385674 24.354149,101.773941 24.985256,104.550064 
	C24.189035,102.472115 23.392525,100.006317 22.844261,97.268959 
z"/>
<path fill="#FE9A4B" opacity="1.000000" stroke="none" 
	d="
M27.871857,109.887878 
	C27.447514,110.169418 27.063465,110.096283 26.389313,109.985580 
	C26.067055,109.495247 26.034899,109.042480 26.018780,108.010468 
	C26.034817,107.431221 26.168903,106.956718 26.168903,106.956718 
	C26.749985,107.815544 27.331068,108.674370 27.871857,109.887878 
z"/>
<path fill="#DC604F" opacity="1.000000" stroke="none" 
	d="
M26.122168,106.635902 
	C26.168903,106.956718 26.034817,107.431221 25.984383,107.671402 
	C25.639017,107.158737 25.344086,106.405899 25.054329,105.334946 
	C25.059504,105.016838 25.545517,105.017700 25.788864,105.018715 
	C26.046616,105.451515 26.061024,105.883301 26.122168,106.635902 
z"/>
<path fill="#DC604F" opacity="1.000000" stroke="none" 
	d="
M53.140442,128.852844 
	C52.648548,128.580902 52.320454,128.143143 51.893234,127.447540 
	C51.794109,127.189682 51.974640,127.022820 52.295776,127.072815 
	C52.954922,127.533394 53.292923,127.943962 53.630928,128.354538 
	C53.630928,128.354538 53.304241,128.687027 53.140442,128.852844 
z"/>
<path fill="#FD5B44" opacity="1.000000" stroke="none" 
	d="
M9.040141,7.548128 
	C9.157747,7.845602 9.090043,8.139104 9.022338,8.432606 
	C8.966502,8.136456 8.910666,7.840306 9.040141,7.548128 
z"/>
<path fill="#E0B168" opacity="1.000000" stroke="none" 
	d="
M37.837673,114.985458 
	C37.620560,115.038551 37.283234,114.983070 37.113258,114.960114 
	C38.337410,113.988098 39.759117,112.184265 41.121189,112.228226 
	C50.197861,112.521133 59.259560,113.253082 68.332748,113.711174 
	C69.442688,113.767212 70.592041,113.042679 71.931366,112.160500 
	C72.313591,111.412643 72.511414,111.207130 72.870392,111.376480 
	C74.326416,112.066284 75.645149,112.404190 77.369034,112.802307 
	C78.861946,112.810364 79.949692,112.758194 81.481178,112.759277 
	C84.604515,112.779434 87.284111,112.746338 90.381065,112.797607 
	C92.210625,112.826111 93.622826,112.770264 95.429985,112.775185 
	C96.887321,112.813316 97.949707,112.790688 99.254295,112.818367 
	C99.496498,112.868675 99.985115,112.791069 100.336212,112.861664 
	C101.401077,112.984444 102.114838,113.036621 102.778244,113.424454 
	C100.812263,114.861328 98.896660,115.962547 96.519241,116.998138 
	C91.044083,116.976463 86.030731,117.020439 80.586655,116.970627 
	C78.403137,116.996407 76.650352,117.115974 74.519577,117.069397 
	C63.948612,115.855133 53.762249,114.731880 43.555984,113.835182 
	C41.916553,113.691147 40.188251,114.558723 38.501034,114.958649 
	C38.501034,114.958656 38.054787,114.932365 37.837673,114.985458 
z"/>
<path fill="#D5A159" opacity="1.000000" stroke="none" 
	d="
M72.733093,111.024582 
	C72.511414,111.207130 72.313591,111.412643 72.019600,111.818878 
	C69.771507,101.561661 67.643433,91.126678 65.727959,80.419983 
	C66.426949,80.459602 66.913338,80.770935 67.682304,81.504791 
	C68.118599,85.012276 67.941872,88.157753 68.493523,91.169838 
	C69.712135,97.823723 71.297409,104.410454 72.733093,111.024582 
z"/>
<path fill="#43322D" opacity="1.000000" stroke="none" 
	d="
M38.692020,115.263031 
	C40.188251,114.558723 41.916553,113.691147 43.555984,113.835182 
	C53.762249,114.731880 63.948612,115.855133 74.436111,117.333969 
	C74.678787,118.130638 74.626915,118.496613 74.369553,119.163773 
	C73.804176,121.643593 73.444283,123.822205 72.950760,126.387123 
	C71.241577,138.867661 75.215355,149.305984 82.020767,158.956329 
	C80.196053,159.714096 78.722824,160.309998 75.728104,161.521317 
	C79.273346,163.884735 81.952431,165.474625 84.400902,167.363464 
	C86.453384,168.946808 88.242004,170.873428 90.137016,172.659134 
	C91.149521,173.613251 92.105431,175.387131 93.145798,175.432220 
	C101.750931,175.805267 110.369850,175.860245 119.185822,176.223389 
	C119.931465,176.622910 120.475868,176.810532 121.359970,176.984192 
	C122.471245,176.318588 123.242821,175.666962 124.301910,174.881622 
	C125.390572,174.502289 126.191727,174.256683 126.996590,174.005554 
	C127.000305,174.000000 126.990204,174.007172 127.060692,174.310638 
	C127.755630,175.077805 128.380081,175.541489 129.236603,175.742493 
	C129.653793,174.331024 129.838943,173.182220 130.245697,171.787506 
	C130.644257,170.687515 130.821213,169.833435 131.300934,168.745758 
	C139.607269,167.667892 144.143768,162.281647 148.221237,155.764496 
	C148.639267,154.696289 148.832275,153.862839 149.393799,153.009354 
	C150.848373,151.663605 151.934464,150.337891 153.322205,148.817245 
	C155.731110,143.909943 157.851471,139.203354 159.923187,134.475418 
	C160.108841,134.051743 159.969620,133.489426 159.997742,132.992432 
	C160.320328,127.289825 161.353668,122.530334 165.969391,117.825340 
	C171.334625,112.356377 174.630798,104.762978 178.377838,97.849281 
	C179.810135,95.206589 180.005142,91.893303 180.676407,89.232735 
	C175.861481,92.021973 171.477676,94.561478 167.005005,97.001839 
	C166.916153,96.902695 166.740494,96.702583 166.740479,96.702576 
	C172.910370,91.722466 179.080246,86.742355 185.250122,81.762253 
	C184.960587,81.204651 184.671036,80.647049 184.381500,80.089447 
	C184.464966,81.417091 184.833801,82.800186 184.588257,84.063896 
	C181.777725,98.528511 176.651108,111.827469 165.593674,122.249954 
	C164.206024,123.557922 163.315155,125.859558 163.048157,127.817268 
	C160.523163,146.330719 152.259415,161.170624 135.917252,170.933456 
	C133.868362,172.157455 132.456451,173.210205 133.612274,175.995667 
	C134.785614,178.823380 133.199112,180.058853 130.416061,179.816116 
	C124.717888,179.319168 119.035736,178.604248 113.330338,178.239700 
	C110.734909,178.073883 108.097542,178.498367 105.483276,178.706406 
	C99.188690,179.207260 92.896507,179.738373 86.542686,180.262314 
	C86.537872,172.740875 86.359756,172.974640 80.622040,168.602798 
	C70.143265,160.618561 62.925667,150.332535 59.237183,137.523315 
	C58.327908,134.365601 55.917717,131.640091 53.914215,128.535217 
	C53.292923,127.943962 52.954922,127.533394 52.385391,126.988693 
	C47.730251,123.092186 43.306629,119.329796 38.692020,115.263031 
z"/>
<path fill="#43322D" opacity="1.000000" stroke="none" 
	d="
M71.334084,64.982559 
	C70.710045,48.049347 77.665489,35.107635 92.647034,27.300993 
	C106.966591,19.839300 121.147758,21.522470 133.971909,31.152910 
	C143.506714,38.313183 148.764008,48.149418 148.996536,60.280067 
	C149.268814,74.484451 152.854401,87.812752 159.058594,101.100746 
	C161.653534,99.557259 163.872040,98.237671 166.415527,96.810333 
	C166.740494,96.702583 166.916153,96.902695 166.916702,97.340721 
	C164.728882,99.778725 162.797806,102.755295 160.258774,103.424202 
	C158.652817,103.847298 155.437668,101.257645 154.206940,99.246552 
	C152.572311,96.575394 151.596802,93.197510 151.340866,90.041954 
	C150.518906,79.906929 144.838867,70.495850 146.931366,59.941494 
	C147.112549,59.027664 146.689407,57.980900 146.491592,57.007141 
	C144.945190,49.395199 141.401001,42.907177 136.435165,36.878063 
	C129.654999,28.646154 120.452301,25.626493 110.716248,25.360273 
	C104.891373,25.201000 98.958656,28.245310 93.108246,29.964787 
	C87.027840,31.751862 86.750847,40.761192 79.425385,41.106483 
	C79.292610,41.112740 79.169334,41.674870 79.070160,41.986702 
	C77.371368,47.327873 75.677101,52.670479 73.802742,58.175331 
	C73.739815,58.883434 73.855995,59.428978 73.974808,60.346710 
	C73.655441,62.143787 73.333427,63.568680 72.731750,64.992584 
	C72.079422,64.988586 71.706749,64.985573 71.334084,64.982559 
z"/>
<path fill="#433722" opacity="1.000000" stroke="none" 
	d="
M71.231323,65.417694 
	C71.706749,64.985573 72.079422,64.988586 72.730339,65.438156 
	C72.858704,68.180489 72.770683,70.482353 72.546150,72.770813 
	C72.066086,77.663559 70.577484,82.675529 71.214142,87.408356 
	C72.161270,94.449234 69.917862,102.852776 77.803444,107.781342 
	C78.184036,108.019218 78.086151,109.022629 78.204910,109.895531 
	C78.052483,110.402130 78.016678,110.696190 77.883125,111.174026 
	C77.437912,111.810257 77.200890,112.276176 76.963875,112.742088 
	C75.645149,112.404190 74.326416,112.066284 72.870392,111.376480 
	C71.297409,104.410454 69.712135,97.823723 68.493523,91.169838 
	C67.941872,88.157753 68.118599,85.012276 67.971931,81.557587 
	C69.028839,76.076187 70.078697,70.964508 71.231323,65.417694 
z"/>
<path fill="#FDFDFD" opacity="1.000000" stroke="none" 
	d="
M78.091324,111.003693 
	C78.016678,110.696190 78.052483,110.402130 78.490906,109.674118 
	C81.994896,102.042717 88.726631,98.388100 94.982887,95.165016 
	C110.534454,87.153168 129.301270,92.332863 139.883896,106.614189 
	C148.557053,118.318687 149.782410,131.290390 145.864319,145.295334 
	C143.641541,149.335449 141.644196,153.105438 139.381348,157.030243 
	C139.014603,158.145859 138.913345,159.106705 138.692963,160.401733 
	C136.409195,161.816238 134.055496,162.632690 132.113663,164.024017 
	C124.948074,169.158173 117.071930,171.515579 108.252785,171.172882 
	C97.792870,170.766449 89.650833,165.736984 82.372253,158.794449 
	C75.215355,149.305984 71.241577,138.867661 73.389610,126.387024 
	C83.681953,125.999466 93.402504,126.067604 103.121376,125.969315 
	C108.362732,125.916298 113.617592,118.599060 111.831566,114.796410 
	C109.196503,115.874138 106.597382,116.937172 104.141068,117.674713 
	C103.798798,115.929085 103.313698,114.508942 102.828598,113.088799 
	C102.114838,113.036621 101.401077,112.984444 100.232964,112.759079 
	C99.483917,112.452141 99.228409,112.512863 99.012093,112.768059 
	C97.949707,112.790688 96.887321,112.813316 95.299591,112.472824 
	C93.170738,112.310883 91.567230,112.512062 89.963715,112.713242 
	C87.284111,112.746338 84.604515,112.779434 81.372551,112.469116 
	C79.910568,111.751709 79.000946,111.377701 78.091324,111.003693 
z"/>
<path fill="#FBFEFA" opacity="1.000000" stroke="none" 
	d="
M103.998253,118.000198 
	C106.597382,116.937172 109.196503,115.874138 111.831566,114.796410 
	C113.617592,118.599060 108.362732,125.916298 103.121376,125.969315 
	C93.402504,126.067604 83.681953,125.999466 73.523247,126.000725 
	C73.444283,123.822205 73.804176,121.643593 74.799881,119.191406 
	C77.296249,118.300026 79.156822,117.682220 81.017387,117.064415 
	C86.030731,117.020439 91.044083,116.976463 96.608688,117.306824 
	C99.439392,117.787498 101.718819,117.893845 103.998253,118.000198 
z"/>
<path fill="#FDF7E8" opacity="1.000000" stroke="none" 
	d="
M104.141068,117.674713 
	C101.718819,117.893845 99.439392,117.787498 97.070503,117.372459 
	C98.896660,115.962547 100.812263,114.861328 102.778236,113.424454 
	C103.313698,114.508942 103.798798,115.929085 104.141068,117.674713 
z"/>
<path fill="#FDF7E8" opacity="1.000000" stroke="none" 
	d="
M80.586655,116.970627 
	C79.156822,117.682220 77.296249,118.300026 75.005356,118.890205 
	C74.626915,118.496613 74.678787,118.130638 74.814117,117.500107 
	C76.650352,117.115974 78.403137,116.996407 80.586655,116.970627 
z"/>
<path fill="#FDF7E8" opacity="1.000000" stroke="none" 
	d="
M90.381065,112.797607 
	C91.567230,112.512062 93.170738,112.310883 94.904648,112.412064 
	C93.622826,112.770264 92.210625,112.826111 90.381065,112.797607 
z"/>
<path fill="#FDF7E8" opacity="1.000000" stroke="none" 
	d="
M77.883125,111.174019 
	C79.000946,111.377701 79.910568,111.751709 80.928818,112.415871 
	C79.949692,112.758194 78.861946,112.810364 77.369034,112.802307 
	C77.200890,112.276176 77.437912,111.810257 77.883125,111.174019 
z"/>
<path fill="#FDF7E8" opacity="1.000000" stroke="none" 
	d="
M99.254295,112.818367 
	C99.228409,112.512863 99.483917,112.452141 99.881866,112.688484 
	C99.985115,112.791069 99.496498,112.868675 99.254295,112.818367 
z"/>
<path fill="#373535" opacity="1.000000" stroke="none" 
	d="
M146.089737,145.025208 
	C149.782410,131.290390 148.557053,118.318687 139.883896,106.614189 
	C129.301270,92.332863 110.534454,87.153168 94.982887,95.165016 
	C88.726631,98.388100 81.994896,102.042717 78.497070,109.448135 
	C78.086151,109.022629 78.184036,108.019218 77.803444,107.781342 
	C69.917862,102.852776 72.161270,94.449234 71.214142,87.408356 
	C70.577484,82.675529 72.066086,77.663559 72.546150,72.770813 
	C72.770683,70.482353 72.858704,68.180489 73.010010,65.439133 
	C73.333427,63.568680 73.655441,62.143787 73.980606,60.020092 
	C73.983116,58.885113 73.982483,58.448940 73.981842,58.012768 
	C75.677101,52.670479 77.371368,47.327873 79.070160,41.986702 
	C79.169334,41.674870 79.292610,41.112740 79.425385,41.106483 
	C86.750847,40.761192 87.027840,31.751862 93.108246,29.964787 
	C98.958656,28.245310 104.891373,25.201000 110.716248,25.360273 
	C120.452301,25.626493 129.654999,28.646154 136.435165,36.878063 
	C141.401001,42.907177 144.945190,49.395199 146.491592,57.007141 
	C146.689407,57.980900 147.112549,59.027664 146.931366,59.941494 
	C144.838867,70.495850 150.518906,79.906929 151.340866,90.041954 
	C151.596802,93.197510 152.572311,96.575394 154.206940,99.246552 
	C155.437668,101.257645 158.652817,103.847298 160.258774,103.424202 
	C162.797806,102.755295 164.728882,99.778725 167.005554,97.439865 
	C171.477676,94.561478 175.861481,92.021973 180.676407,89.232735 
	C180.005142,91.893303 179.810135,95.206589 178.377838,97.849281 
	C174.630798,104.762978 171.334625,112.356377 165.969391,117.825340 
	C161.353668,122.530334 160.320328,127.289825 159.997742,132.992432 
	C159.969620,133.489426 160.108841,134.051743 159.923187,134.475418 
	C157.851471,139.203354 155.731110,143.909943 153.003510,148.671478 
	C150.285339,147.488846 148.187546,146.257034 146.089737,145.025208 
M86.499931,49.732285 
	C85.379364,50.711029 84.058502,51.536877 83.173874,52.695732 
	C79.841148,57.061527 79.361526,61.880489 81.909134,66.711533 
	C84.264259,71.177574 88.051079,73.531273 93.306778,73.121033 
	C98.603882,72.707550 101.927780,69.650436 103.516342,64.913048 
	C105.158783,60.014988 104.280563,55.380226 100.456703,51.591816 
	C96.557831,47.729073 92.060020,47.288280 86.499931,49.732285 
M134.289352,51.147545 
	C128.614288,47.231720 123.613029,47.112499 119.235146,50.788685 
	C115.124100,54.240822 113.572014,60.826633 115.705139,65.767181 
	C117.892059,70.832314 122.607933,73.688911 128.025162,73.078941 
	C132.546799,72.569809 135.695801,70.057281 137.396988,65.895973 
	C139.538391,60.657814 138.787018,55.841793 134.289352,51.147545 
M107.584869,78.897827 
	C106.103058,79.200996 104.621246,79.504166 102.339508,79.970993 
	C105.344345,82.822769 107.656715,85.017349 110.308205,87.533783 
	C112.419174,85.246483 114.273537,83.237228 116.949684,80.337547 
	C113.514404,79.556229 110.970901,78.979095 108.431511,78.384430 
	C108.400223,78.377113 108.421623,78.144798 108.418434,78.017509 
	C108.340897,78.247688 108.263351,78.477867 107.584869,78.897827 
M77.400238,97.509377 
	C76.796623,98.183800 76.193008,98.858223 75.589386,99.532639 
	C76.371964,99.883926 77.154541,100.235207 77.937119,100.586494 
	C77.944839,99.658913 77.952560,98.731323 77.400238,97.509377 
z"/>
<path fill="#333835" opacity="1.000000" stroke="none" 
	d="
M145.864319,145.295334 
	C148.187546,146.257034 150.285339,147.488846 152.701859,148.866425 
	C151.934464,150.337891 150.848373,151.663605 149.089783,153.070526 
	C148.276932,154.100906 148.136581,155.050079 147.996216,155.999252 
	C144.143768,162.281647 139.607269,167.667892 130.981506,168.763672 
	C127.210281,169.683945 128.352356,170.829285 130.024078,172.033432 
	C129.838943,173.182220 129.653793,174.331024 129.165405,175.438782 
	C128.238159,174.934235 127.614174,174.470703 126.990204,174.007172 
	C126.990204,174.007172 127.000305,174.000000 126.931145,173.715042 
	C126.089767,173.218048 125.317543,173.006012 124.545326,172.793976 
	C124.368347,173.534439 124.191376,174.274887 124.014404,175.015350 
	C123.242821,175.666962 122.471245,176.318588 121.475037,176.702850 
	C121.128952,175.736099 121.007492,175.036682 120.886032,174.337280 
	C120.252213,174.895340 119.618401,175.453415 118.984589,176.011505 
	C110.369850,175.860245 101.750931,175.805267 93.145798,175.432220 
	C92.105431,175.387131 91.149521,173.613251 90.137016,172.659134 
	C88.242004,170.873428 86.453384,168.946808 84.400902,167.363464 
	C81.952431,165.474625 79.273346,163.884735 75.728104,161.521317 
	C78.722824,160.309998 80.196053,159.714096 82.020767,158.956329 
	C89.650833,165.736984 97.792870,170.766449 108.252785,171.172882 
	C117.071930,171.515579 124.948074,169.158173 132.113663,164.024017 
	C134.055496,162.632690 136.409195,161.816238 139.041626,160.341614 
	C140.501038,159.395355 141.492661,158.843399 143.390274,157.787125 
	C141.391846,157.300430 140.519348,157.087936 139.646851,156.875443 
	C141.644196,153.105438 143.641541,149.335449 145.864319,145.295334 
z"/>
<path fill="#2F322E" opacity="1.000000" stroke="none" 
	d="
M130.245697,171.787506 
	C128.352356,170.829285 127.210281,169.683945 130.678726,168.997284 
	C130.821213,169.833435 130.644257,170.687515 130.245697,171.787506 
z"/>
<path fill="#2F322E" opacity="1.000000" stroke="none" 
	d="
M124.301910,174.881622 
	C124.191376,174.274887 124.368347,173.534439 124.545326,172.793976 
	C125.317543,173.006012 126.089767,173.218048 126.927429,173.720581 
	C126.191727,174.256683 125.390572,174.502289 124.301910,174.881622 
z"/>
<path fill="#2F322E" opacity="1.000000" stroke="none" 
	d="
M119.185822,176.223389 
	C119.618401,175.453415 120.252213,174.895340 120.886032,174.337280 
	C121.007492,175.036682 121.128952,175.736099 121.135345,176.716827 
	C120.475868,176.810532 119.931465,176.622910 119.185822,176.223389 
z"/>
<path fill="#373535" opacity="1.000000" stroke="none" 
	d="
M148.221222,155.764496 
	C148.136581,155.050079 148.276932,154.100906 148.721283,153.090561 
	C148.832275,153.862839 148.639267,154.696289 148.221222,155.764496 
z"/>
<path fill="#2F322E" opacity="1.000000" stroke="none" 
	d="
M127.060684,174.310638 
	C127.614174,174.470703 128.238159,174.934235 128.933334,175.701462 
	C128.380081,175.541489 127.755630,175.077805 127.060684,174.310638 
z"/>
<path fill="#433722" opacity="1.000000" stroke="none" 
	d="
M73.802750,58.175331 
	C73.982483,58.448940 73.983116,58.885113 73.977959,59.647903 
	C73.855995,59.428978 73.739815,58.883434 73.802750,58.175331 
z"/>
<path fill="#373535" opacity="1.000000" stroke="none" 
	d="
M139.381363,157.030243 
	C140.519348,157.087936 141.391846,157.300430 143.390274,157.787125 
	C141.492661,158.843399 140.501038,159.395355 139.160736,160.007431 
	C138.913345,159.106705 139.014603,158.145859 139.381363,157.030243 
z"/>
<path fill="#F4F4F4" opacity="1.000000" stroke="none" 
	d="
M86.824051,49.528652 
	C92.060020,47.288280 96.557831,47.729073 100.456703,51.591816 
	C104.280563,55.380226 105.158783,60.014988 103.516342,64.913048 
	C101.927780,69.650436 98.603882,72.707550 93.306778,73.121033 
	C88.051079,73.531273 84.264259,71.177574 81.909134,66.711533 
	C79.361526,61.880489 79.841148,57.061527 83.173874,52.695732 
	C84.058502,51.536877 85.379364,50.711029 86.824051,49.528652 
M96.965195,62.962788 
	C97.806458,59.738522 97.526939,56.602345 93.829384,55.869389 
	C92.069954,55.520618 88.627159,56.735374 88.238831,57.965427 
	C87.600578,59.987095 88.074112,63.263374 89.439400,64.808418 
	C91.650398,67.310486 94.531311,66.317444 96.965195,62.962788 
z"/>
<path fill="#F5F5F5" opacity="1.000000" stroke="none" 
	d="
M134.568192,51.395851 
	C138.787018,55.841793 139.538391,60.657814 137.396988,65.895973 
	C135.695801,70.057281 132.546799,72.569809 128.025162,73.078941 
	C122.607933,73.688911 117.892059,70.832314 115.705139,65.767181 
	C113.572014,60.826633 115.124100,54.240822 119.235146,50.788685 
	C123.613029,47.112499 128.614288,47.231720 134.568192,51.395851 
M121.486992,61.330227 
	C122.967896,62.898743 124.203621,65.029633 126.022614,65.822678 
	C127.095993,66.290649 129.863159,65.040932 130.487488,63.843559 
	C131.339828,62.208885 131.471436,59.647915 130.781479,57.941051 
	C130.268311,56.671524 127.337799,55.035622 126.571518,55.472122 
	C124.540413,56.629128 123.099174,58.821651 121.486992,61.330227 
z"/>
<path fill="#EFEFEF" opacity="1.000000" stroke="none" 
	d="
M107.885345,78.802933 
	C108.263351,78.477867 108.340897,78.247688 108.418434,78.017509 
	C108.421623,78.144798 108.400223,78.377113 108.431511,78.384430 
	C110.970901,78.979095 113.514404,79.556229 116.949684,80.337547 
	C114.273537,83.237228 112.419174,85.246483 110.308205,87.533783 
	C107.656715,85.017349 105.344345,82.822769 102.339508,79.970993 
	C104.621246,79.504166 106.103058,79.200996 107.885345,78.802933 
z"/>
<path fill="#433722" opacity="1.000000" stroke="none" 
	d="
M77.680252,97.656555 
	C77.952560,98.731323 77.944839,99.658913 77.937119,100.586494 
	C77.154541,100.235207 76.371964,99.883926 75.589386,99.532639 
	C76.193008,98.858223 76.796623,98.183800 77.680252,97.656555 
z"/>
<path fill="#3D3D3D" opacity="1.000000" stroke="none" 
	d="
M96.782104,63.333424 
	C94.531311,66.317444 91.650398,67.310486 89.439400,64.808418 
	C88.074112,63.263374 87.600578,59.987095 88.238831,57.965427 
	C88.627159,56.735374 92.069954,55.520618 93.829384,55.869389 
	C97.526939,56.602345 97.806458,59.738522 96.782104,63.333424 
z"/>
<path fill="#3F3F3F" opacity="1.000000" stroke="none" 
	d="
M121.455116,60.966198 
	C123.099174,58.821651 124.540413,56.629128 126.571518,55.472122 
	C127.337799,55.035622 130.268311,56.671524 130.781479,57.941051 
	C131.471436,59.647915 131.339828,62.208885 130.487488,63.843559 
	C129.863159,65.040932 127.095993,66.290649 126.022614,65.822678 
	C124.203621,65.029633 122.967896,62.898743 121.455116,60.966198 
z"/>
</svg>